<svg width="934" height="934" viewBox="0 0 934 934" fill="none" xmlns="http://www.w3.org/2000/svg">
<path d="M279.147 286.027C237.36 299.094 209.36 337.433 209.36 381.224C209.36 389.266 215.964 395.869 224.005 395.869C232.046 395.869 238.651 389.265 238.651 381.224C238.651 350.355 258.468 323.213 287.901 314.027C295.656 311.584 299.964 303.402 297.521 295.647C295.083 287.891 286.896 283.73 279.147 286.027Z" fill="black"/>
<path d="M238.64 431.92C238.64 440.009 232.083 446.565 223.995 446.565C215.907 446.565 209.35 440.008 209.35 431.92C209.35 423.832 215.907 417.275 223.995 417.275C232.083 417.275 238.64 423.832 238.64 431.92Z" fill="black"/>
<path d="M642.56 197.573C650.601 197.573 657.205 190.969 657.205 182.928C657.205 174.887 650.601 168.283 642.56 168.283C634.519 168.283 627.915 174.887 627.915 182.928C627.915 190.969 634.378 197.573 642.56 197.573Z" fill="black"/>
<path d="M495.96 109.557C504.002 109.557 510.606 102.953 510.606 94.912C510.606 86.8708 504.001 80.2667 495.96 80.2667C487.919 80.2667 481.315 86.8708 481.315 94.912C481.315 102.953 487.919 109.557 495.96 109.557Z" fill="black"/>
<path d="M224 461.213C215.958 461.213 209.354 467.817 209.354 475.859C209.354 483.9 215.959 490.504 224 490.504C232.041 490.504 238.645 483.9 238.645 475.859C238.645 467.822 232.041 461.213 224 461.213Z" fill="black"/>
<path d="M519.213 253.573L539.891 232.896L519.213 212.219L498.536 232.896L519.213 253.573Z" fill="black"/>
<path d="M753.653 268.307L732.94 247.593L753.653 226.88L774.367 247.593L753.653 268.307Z" fill="black"/>
<path d="M798.213 669.56L737.76 615.857V577.087C775.239 570.196 803.667 537.311 803.667 497.827L803.672 344.04C803.672 335.998 797.068 329.395 789.027 329.395H525.253C517.212 329.395 510.608 335.999 510.608 344.04V497.827C510.608 537.316 539.04 570.196 576.515 577.087V615.857L519.655 666.399H471.409C477.581 656.633 481.175 645.148 481.175 632.653V387.973C481.175 319.192 438.243 261.041 378.654 237.787L378.648 65.6267C378.648 57.5851 372.044 50.9813 364.003 50.9813H276.128C268.087 50.9813 261.483 57.5855 261.483 65.6267V237.787C201.748 261.047 158.962 319.203 158.962 387.973V632.653C158.962 645.002 162.55 656.632 168.727 666.399H144.315C136.274 666.399 129.67 673.003 129.67 681.044C129.67 689.085 136.274 695.689 144.315 695.689H789.035C797.077 695.689 803.681 689.085 803.681 681.044C803.675 676.304 801.519 672.284 798.217 669.554L798.213 669.56ZM657.067 661.378L605.807 615.862V577.091C626.916 573.216 645.151 561.008 657.067 544.064C668.983 561.007 687.223 573.215 708.327 577.091V615.862L657.067 661.378ZM774.379 387.978H715.795C707.753 387.978 701.149 394.582 701.149 402.623C701.149 410.664 707.754 417.268 715.795 417.268H774.379V497.82C774.379 526.107 751.405 549.08 723.119 549.08C694.832 549.08 671.859 526.107 671.859 497.82V358.674H774.38L774.379 387.978ZM539.899 497.827V417.275H598.483C606.524 417.275 613.128 410.671 613.128 402.63C613.128 394.589 606.524 387.984 598.483 387.984L539.899 387.979V358.687H642.42V497.834C642.42 526.121 619.447 549.094 591.16 549.094C562.873 549.094 539.9 526.121 539.9 497.834L539.899 497.827ZM452.024 578.379H408.087C400.045 578.379 393.441 571.775 393.441 563.734V446.562C393.441 438.52 400.046 431.916 408.087 431.916H452.024V578.379ZM349.503 80.2591V109.551H290.919L290.914 80.2591H349.503ZM221.992 666.392C203.471 666.392 188.247 651.314 188.247 632.647V607.808H320.205C328.247 607.808 334.851 601.204 334.851 593.163C334.851 585.122 328.247 578.518 320.205 578.518L188.247 578.513V387.966C188.247 330.102 225.293 279.554 280.575 262.179C286.747 260.315 290.767 254.57 290.767 248.253L290.773 138.982H349.357V248.253C349.357 254.716 353.523 260.315 359.549 262.179C414.689 279.554 451.877 330.097 451.877 387.966V402.611H407.94C383.675 402.611 364.003 422.283 364.003 446.549V563.715C364.003 587.981 383.675 607.653 407.94 607.653H451.877V632.491C451.877 651.013 436.799 666.237 418.132 666.237L221.985 666.242L221.992 666.392ZM563.739 666.392L591.165 641.98L618.592 666.392H563.739ZM695.697 666.392L723.124 641.98L750.551 666.392H695.697Z" fill="black"/>
<path d="M722.974 139C743.219 139 759.588 122.631 759.588 102.385C759.588 82.14 743.219 65.7706 722.974 65.7706C702.728 65.7706 686.359 82.14 686.359 102.385C686.359 122.489 702.87 139 722.974 139ZM722.974 94.9173C726.994 94.9173 730.297 98.2194 730.297 102.24C730.297 106.261 726.994 109.563 722.974 109.563C718.953 109.563 715.651 106.261 715.651 102.24C715.651 98.2194 718.953 94.9173 722.974 94.9173Z" fill="black"/>
<path d="M195.573 182.933C215.818 182.933 232.188 166.564 232.188 146.319C232.188 126.073 215.824 109.704 195.573 109.704C175.328 109.704 158.958 126.073 158.958 146.319C158.958 166.423 175.474 182.933 195.573 182.933ZM195.573 138.996C199.594 138.996 202.896 142.298 202.896 146.319C202.896 150.34 199.594 153.642 195.573 153.642C191.552 153.642 188.25 150.34 188.25 146.319C188.25 142.157 191.552 138.996 195.573 138.996Z" fill="black"/>
</svg>
