<svg width="934" height="934" viewBox="0 0 934 934" fill="none" xmlns="http://www.w3.org/2000/svg">
<path d="M809.467 199.227C805.107 197.419 800.092 198.414 796.753 201.753L770.004 228.502V140.002C770.004 135.408 767.306 131.242 763.118 129.361C758.926 127.481 754.019 128.231 750.587 131.283L683.144 191.231C661.092 210.846 632.603 221.679 603.082 221.669C564.915 221.564 528.295 236.737 501.379 263.799L490.004 275.174L481.541 266.705C452.765 237.779 413.614 221.56 372.811 221.669C353.046 221.675 333.645 216.326 316.666 206.196L332.067 154.821C344.078 114.649 338.656 71.2747 317.114 35.2947L313.343 29.0083C311.645 26.1749 308.822 24.1905 305.583 23.5552C302.338 22.9198 298.984 23.6906 296.338 25.6697C264.051 49.9977 242.958 86.3364 237.859 126.44L236.469 137.55L229.416 131.279H229.422C226.64 128.805 222.849 127.81 219.213 128.597C215.578 129.378 212.536 131.852 211.026 135.253C187.865 115.784 158.594 105.076 128.338 105.002C121.895 105.002 116.671 110.226 116.671 116.669V140.002C116.77 178.284 133.865 214.544 163.338 238.976V253.84C150.963 253.834 139.087 258.751 130.338 267.506C121.588 276.256 116.671 288.126 116.671 300.506C116.671 312.881 121.588 324.752 130.338 333.501L139.38 342.543L116.76 523.556C116.411 526.337 117.077 529.144 118.629 531.478L141.963 566.478C145.541 571.837 152.78 573.285 158.145 569.712L163.338 566.249V630.003C163.338 633.097 164.567 636.066 166.755 638.253L201.755 673.253C203.942 675.441 206.911 676.67 210.005 676.67C213.098 676.67 216.067 675.441 218.255 673.253L253.255 638.253C255.682 635.826 256.916 632.456 256.63 629.034L245.692 497.826C255.114 500.363 264.828 501.655 274.588 501.67H320.427H320.422C349.943 501.748 378.271 490.019 399.088 469.086L400.088 468.086C408.463 459.711 419.828 455.003 431.672 455.003C443.516 455.003 454.88 459.711 463.256 468.086L481.756 486.586C483.944 488.774 486.913 490.003 490.006 490.003C493.1 490.003 496.069 488.774 498.256 486.586L516.756 468.086C525.131 459.711 536.496 455.003 548.34 455.003C560.184 455.003 571.548 459.711 579.924 468.086L580.924 469.086C601.742 490.018 630.07 501.747 659.591 501.67H688.34V711.67C688.34 714.764 689.569 717.733 691.757 719.92C693.944 722.108 696.913 723.337 700.007 723.337H746.674C749.767 723.337 752.736 722.108 754.924 719.92C757.111 717.733 758.34 714.764 758.34 711.67V488.324C775.971 478.761 790.695 464.615 800.96 447.386C811.226 430.157 816.658 410.474 816.674 390.417V210.003C816.674 205.285 813.83 201.029 809.47 199.227L809.467 199.227ZM270.333 265.508L230.505 225.669V210.003C230.505 203.815 232.964 197.883 237.339 193.503C241.714 189.128 247.646 186.669 253.833 186.669C260.026 186.669 265.958 189.128 270.333 193.503L302.505 225.669V225.675C306.88 230.049 309.339 235.982 309.339 242.169C309.339 248.362 306.88 254.294 302.505 258.669C298.13 263.044 292.193 265.503 286.005 265.508L270.333 265.508ZM230.505 295.675L200.333 265.508L218.833 247.008L249 277.175L230.505 295.675ZM272.459 90.6347L283.422 101.593H283.417C286.542 104.718 291.162 105.812 295.355 104.411L314.204 98.1296C314.985 105.156 315.173 112.234 314.766 119.291L283.578 127.088L265.365 108.869C267.251 102.614 269.626 96.5151 272.454 90.6239L272.459 90.6347ZM300.219 52.796C304.01 59.9211 307.109 67.3893 309.464 75.108L294.818 79.9883L284.86 70.0299V70.0351C289.443 63.8268 294.584 58.0611 300.22 52.7951L300.219 52.796ZM260.099 136.599L271.75 148.25C274.651 151.146 278.859 152.307 282.833 151.312L310.754 144.333C310.421 145.593 310.098 146.854 309.723 148.109L297.775 187.932L286.838 176.994C281.562 171.713 275.088 167.781 267.969 165.536L257.635 156.348L260.099 136.599ZM234.891 167.369C234.37 167.604 233.849 167.843 233.333 168.098V165.989L234.891 167.369ZM140 129C147.958 129.911 155.787 131.734 163.333 134.432V163.339H142.667C140.901 155.688 140.005 147.86 140 140.006V129ZM151.01 186.672H175C178.094 186.672 181.062 185.443 183.25 183.255C185.437 181.068 186.666 178.099 186.666 175.005V146.131C195.474 151.995 203.344 159.167 210 167.391V193.948C208.12 199.094 207.161 204.526 207.172 210.005V225.672L183.254 201.755C180.358 198.864 176.166 197.697 172.197 198.687C168.223 199.671 165.062 202.661 163.858 206.567C158.843 200.437 154.536 193.766 151.01 186.672ZM190.666 242.172L186.666 246.172V238.167L190.666 242.172ZM146.833 284.011C151.203 279.62 157.14 277.157 163.333 277.177H179L218.833 317.011V332.683L218.838 332.677C218.833 338.865 216.375 344.803 212 349.177C207.625 353.552 201.692 356.011 195.5 356.011C189.312 356.011 183.38 353.552 179.005 349.177L146.833 317.005C142.463 312.625 140.01 306.693 140.01 300.505C140.01 294.323 142.463 288.386 146.833 284.011ZM154.901 543.824L140.448 522.141L160.281 363.448L162.5 365.667C166.146 369.313 170.369 372.333 175 374.604V530.418L154.901 543.824ZM210 648.501L186.666 625.168V550.689L193.14 546.372V546.377C196.385 544.21 198.333 540.569 198.333 536.669V379.242C203.062 378.966 207.724 377.966 212.15 376.278L232.926 625.572L210 648.501ZM735 700.001H711.666V501.481C719.557 501.049 727.38 499.773 735 497.679V700.001ZM793.333 390.415C793.333 413.732 784.073 436.097 767.584 452.581C751.1 469.071 728.734 478.331 705.417 478.331H659.584C636.25 478.393 613.87 469.122 597.417 452.581L596.417 451.581C583.662 438.826 566.37 431.664 548.334 431.664C530.298 431.664 513.006 438.825 500.252 451.581L490.002 461.831L479.752 451.576V451.581C466.996 438.826 449.705 431.664 431.669 431.664C413.633 431.664 396.341 438.825 383.586 451.581L382.586 452.581C366.133 469.123 343.753 478.393 320.42 478.331H274.586C263.998 478.305 253.504 476.383 243.597 472.648L234.118 358.883C239.388 351.159 242.196 342.019 242.175 332.67V316.998L270.342 288.831H286.014L286.008 288.836C298.389 288.836 310.259 283.92 319.008 275.164C327.758 266.414 332.675 254.544 332.675 242.17C332.675 241.019 332.618 239.883 332.54 238.748C345.561 242.888 359.149 244.998 372.81 244.998C407.425 244.904 440.633 258.659 465.04 283.2L481.753 299.914C483.941 302.101 486.909 303.33 490.003 303.33C493.097 303.33 496.066 302.101 498.253 299.914L517.873 280.288C540.425 257.616 571.108 244.908 603.081 244.996C638.316 245.012 672.321 232.08 698.649 208.663L746.67 165.975V256.663C746.67 261.382 749.514 265.637 753.873 267.444C758.233 269.246 763.248 268.252 766.587 264.913L793.336 238.164L793.333 390.415Z" fill="black"/>
<path d="M721.613 350.693L734.155 319.329C735.593 315.736 735.155 311.663 732.983 308.46C730.817 305.251 727.197 303.329 723.327 303.329H651.624C632.442 303.329 613.64 308.673 597.322 318.756C580.999 328.845 567.811 343.272 559.234 360.428L549.557 379.777H549.562C547.864 383.163 547.921 387.163 549.708 390.501C551.494 393.84 554.791 396.1 558.546 396.574L628.926 405.376L628.931 405.371C632.572 405.824 636.244 406.053 639.916 406.053C657.504 406.038 674.686 400.757 689.244 390.892C703.806 381.022 715.077 367.023 721.613 350.695L721.613 350.693ZM668.796 375.887C657.374 381.616 644.504 383.819 631.823 382.22L577.807 375.47L580.104 370.871V370.866C586.745 357.585 596.953 346.412 609.588 338.606C622.218 330.798 636.776 326.663 651.624 326.663H706.093L699.947 342.027C694.067 356.751 682.978 368.797 668.796 375.887Z" fill="black"/>
<path d="M432.427 360.44C423.849 343.279 410.661 328.852 394.344 318.763C378.021 308.679 359.219 303.336 340.037 303.336H268.335C264.465 303.336 260.845 305.258 258.673 308.461C256.501 311.669 256.064 315.742 257.501 319.336L270.043 350.7C277.267 368.783 290.283 383.96 307.054 393.856C323.83 403.747 343.408 407.799 362.726 405.377L433.106 396.575L433.111 396.58C436.866 396.106 440.163 393.845 441.949 390.507C443.736 387.168 443.788 383.168 442.095 379.783L432.427 360.44ZM359.839 382.232C345.636 384.008 331.251 381.024 318.921 373.753C306.592 366.482 297.025 355.331 291.713 342.039L285.562 326.67H340.036C354.885 326.67 369.442 330.806 382.072 338.613C394.707 346.42 404.916 357.591 411.556 370.873L413.853 375.472L359.839 382.232Z" fill="black"/>
<path d="M653.333 420H676.667V443.333H653.333V420Z" fill="black"/>
<path d="M268.333 408.333H291.667V431.667H268.333V408.333Z" fill="black"/>
<path d="M315 420H338.333V443.333H315V420Z" fill="black"/>
<path d="M700 408.333H723.333V431.667H700V408.333Z" fill="black"/>
<path d="M723.333 373.333H746.667V396.667H723.333V373.333Z" fill="black"/>
<path d="M245 373.333H268.333V396.667H245V373.333Z" fill="black"/>
</svg>
