<svg width="934" height="934" viewBox="0 0 934 934" fill="none" xmlns="http://www.w3.org/2000/svg">
<path d="M420 303.333V105C420 101.25 418.198 97.7291 415.156 95.5363C412.115 93.3437 408.203 92.7446 404.646 93.9322L264.646 140.599C259.88 142.187 256.667 146.646 256.667 151.667V286.267C244.76 279.392 230.421 278.116 217.489 282.787C204.552 287.459 194.339 297.599 189.572 310.495C184.806 323.396 185.973 337.741 192.76 349.703C199.551 361.662 211.27 370.015 224.79 372.531C238.306 375.052 252.249 371.479 262.889 362.766C273.53 354.058 279.785 341.094 279.982 327.345H279.998V326.824V326.657V326.49V230.069L396.664 191.184V262.944C384.722 256.053 370.336 254.798 357.383 259.517C344.425 264.235 334.216 274.443 329.503 287.407C324.795 300.366 326.055 314.746 332.956 326.689C339.852 338.626 351.68 346.902 365.263 349.293C378.842 351.683 392.784 347.944 403.346 339.074C413.907 330.204 420.002 317.12 419.996 303.328L420 303.333ZM233.333 350C227.151 350 221.219 347.547 216.844 343.177C212.469 338.807 210.006 332.88 210 326.693C209.995 320.511 212.443 314.579 216.808 310.198C221.172 305.818 227.094 303.349 233.277 303.334C239.464 303.318 245.397 305.761 249.782 310.12C254.168 314.48 256.647 320.401 256.668 326.584V326.751C256.642 332.923 254.168 338.834 249.798 343.188C245.423 347.548 239.506 349.995 233.333 350ZM280 205.48V160.073L396.667 121.188V166.589L280 205.48ZM350 303.335C350 297.147 352.458 291.21 356.833 286.835C361.208 282.46 367.146 280.001 373.333 280.001C379.521 280.001 385.458 282.46 389.833 286.835C394.208 291.21 396.667 297.147 396.667 303.335C396.667 309.522 394.208 315.46 389.833 319.835C385.458 324.21 379.521 326.668 373.333 326.668C367.146 326.663 361.214 324.199 356.844 319.824C352.469 315.454 350.005 309.522 350 303.335Z" fill="black"/>
<path d="M431.667 653.333C443.729 653.318 455.323 648.635 464.016 640.266C472.703 631.896 477.819 620.49 478.292 608.438C478.313 608.146 478.334 607.854 478.334 607.547V420C478.334 413.558 473.11 408.334 466.667 408.334C460.224 408.334 455 413.558 455 420V566.28C442.438 559.025 427.219 558.025 413.812 563.572C400.411 569.124 390.348 580.588 386.594 594.603C382.838 608.613 385.812 623.576 394.646 635.087C403.479 646.592 417.162 653.337 431.667 653.337L431.667 653.333ZM431.667 583.333C437.854 583.333 443.792 585.792 448.167 590.167C452.541 594.542 455 600.479 455 606.667C455 612.854 452.541 618.792 448.167 623.167C443.792 627.542 437.854 630 431.667 630C425.479 630 419.541 627.542 415.167 623.167C410.792 618.792 408.333 612.854 408.333 606.667C408.338 600.479 410.802 594.552 415.177 590.177C419.552 585.803 425.479 583.339 431.667 583.333Z" fill="black"/>
<path d="M508.026 175C512.214 175 516.078 172.755 518.157 169.12L547.854 117.15C550.463 112.583 549.692 106.833 545.974 103.114L516.276 73.417C514.089 71.2296 511.12 70.0004 508.026 70.0004C504.933 70.0004 501.964 71.2295 499.776 73.417L470.079 103.114C466.36 106.833 465.589 112.583 468.199 117.15L497.896 169.12C499.974 172.755 503.839 175 508.026 175ZM508.026 98.1666L523.172 113.312L508.026 139.817L492.881 113.312L508.026 98.1666Z" fill="black"/>
<path d="M659.693 536.667C656.6 536.667 653.631 537.896 651.443 540.083L621.746 569.781C618.027 573.5 617.256 579.249 619.866 583.817L649.563 635.786C651.641 639.422 655.506 641.666 659.693 641.666C663.881 641.666 667.745 639.422 669.824 635.786L699.521 583.817C702.13 579.249 701.359 573.499 697.641 569.781L667.943 540.083C665.756 537.896 662.787 536.667 659.693 536.667ZM659.693 606.484L644.548 579.979L659.693 564.833L674.839 579.979L659.693 606.484Z" fill="black"/>
<path d="M312.053 470.08L282.356 499.777C278.637 503.496 277.866 509.246 280.481 513.813L310.178 565.783H310.173C312.251 569.418 316.121 571.663 320.304 571.663C324.491 571.663 328.356 569.418 330.434 565.783L360.131 513.813C362.74 509.246 361.97 503.496 358.251 499.777L328.554 470.08C326.366 467.893 323.397 466.663 320.304 466.663C317.21 466.663 314.241 467.893 312.053 470.08ZM320.303 536.481L305.158 509.976L320.303 494.831L335.449 509.976L320.303 536.481Z" fill="black"/>
<path d="M805 396.667H758.333C751.891 396.667 746.667 401.891 746.667 408.333C746.667 414.776 751.891 420 758.333 420H805C811.443 420 816.667 414.776 816.667 408.333C816.667 401.891 811.443 396.667 805 396.667Z" fill="black"/>
<path d="M128.333 420H175C181.443 420 186.667 414.776 186.667 408.333C186.667 401.891 181.443 396.667 175 396.667H128.333C121.891 396.667 116.667 401.891 116.667 408.333C116.667 414.776 121.891 420 128.333 420Z" fill="black"/>
<path d="M224.84 668.667L191.84 703.667H191.845C187.423 708.359 187.642 715.74 192.329 720.161C197.017 724.583 204.402 724.364 208.819 719.677L241.819 684.677C243.97 682.427 245.131 679.417 245.053 676.307C244.975 673.203 243.657 670.25 241.392 668.12C239.131 665.984 236.11 664.844 233.001 664.948C229.897 665.052 226.96 666.391 224.84 668.667Z" fill="black"/>
<path d="M743.253 26.7493C741.066 24.5618 738.097 23.3326 735.003 23.3326C731.91 23.3326 728.941 24.5618 726.753 26.7493L693.753 59.7493C689.248 64.3118 689.269 71.6608 693.805 76.1973C698.342 80.7337 705.691 80.7546 710.253 76.2494L743.253 43.2494C745.441 41.0619 746.67 38.0931 746.67 34.9994C746.67 31.9057 745.441 28.9368 743.253 26.7493Z" fill="black"/>
<path d="M740.187 684.667L773.187 719.667H773.181C777.603 724.354 784.984 724.573 789.676 720.151C794.364 715.729 794.582 708.349 790.16 703.656L757.16 668.656C752.744 663.969 745.358 663.75 740.671 668.172C735.984 672.594 735.765 679.974 740.187 684.667Z" fill="black"/>
<path d="M215.413 45.2506L248.413 78.2506C252.981 82.761 260.33 82.735 264.866 78.1985C269.398 73.6621 269.424 66.3131 264.913 61.7505L231.913 28.7505C229.731 26.5423 226.757 25.2975 223.653 25.2869C220.544 25.2765 217.564 26.5057 215.366 28.7036C213.169 30.8963 211.939 33.8807 211.95 36.9848C211.96 40.0941 213.205 43.0683 215.413 45.2506Z" fill="black"/>
<path d="M746.666 245C746.666 239.979 743.453 235.521 738.687 233.932L598.687 187.266C595.13 186.073 591.218 186.667 588.172 188.859C585.125 191.052 583.328 194.578 583.333 198.333V356.267C571.39 349.376 557.01 348.121 544.052 352.84C531.093 357.558 520.89 367.766 516.177 380.725C511.464 393.683 512.724 408.064 519.62 420.006C526.516 431.944 538.344 440.225 551.922 442.616C565.506 445.006 579.449 441.267 590.01 432.402C600.573 423.537 606.672 410.454 606.666 396.662V284.517L731.312 326.063C734.869 327.251 738.781 326.652 741.822 324.459C744.864 322.267 746.666 318.746 746.666 314.996L746.666 245ZM560 420C553.812 420 547.875 417.542 543.5 413.167C539.125 408.792 536.666 402.854 536.666 396.667C536.666 390.479 539.125 384.542 543.5 380.167C547.875 375.792 553.812 373.333 560 373.333C566.187 373.333 572.125 375.792 576.5 380.167C580.875 384.542 583.333 390.479 583.333 396.667C583.328 402.854 580.864 408.781 576.489 413.156C572.114 417.531 566.187 419.995 560 420ZM606.666 259.92V214.519L723.333 253.404V298.811L606.666 259.92Z" fill="black"/>
</svg>
