<svg width="934" height="934" viewBox="0 0 934 934" fill="none" xmlns="http://www.w3.org/2000/svg">
<path d="M830.213 550.213H821.703V355.04H825.359C830.734 355.04 835.14 350.634 835.14 345.259C835.14 339.884 830.734 335.478 825.359 335.478H798.553C793.178 335.478 788.771 339.884 788.771 345.259C788.771 350.634 793.178 355.04 798.553 355.04H802.209V362.879C789.068 385.129 776.297 396.477 766.146 394.759C741.953 390.727 718.359 321.884 709.323 274.248C708.948 272.456 708.131 270.961 707.084 269.696V262.305H710.74C716.115 262.305 720.521 257.899 720.521 252.524C720.521 247.149 716.115 242.743 710.74 242.743H683.933C678.558 242.743 674.152 247.149 674.152 252.524C674.152 257.899 678.558 262.305 683.933 262.305H687.59V262.826C674.449 285.077 661.678 296.425 651.527 294.706C628.158 290.826 605.382 226.613 595.678 179.346H598.516C603.891 179.346 608.297 174.94 608.297 169.565C608.297 164.19 603.891 159.784 598.516 159.784H571.71C566.335 159.784 561.928 164.19 561.928 169.565C561.928 174.94 566.335 179.346 571.71 179.346H575.366L575.376 323.306H566.715C561.34 323.306 556.934 327.712 556.934 333.087C556.934 338.462 561.34 342.868 566.715 342.868H603.303C608.678 342.868 613.084 338.462 613.084 333.087C613.084 327.712 608.678 323.306 603.303 323.306H594.792V246.921C610.323 288.509 627.798 310.535 648.256 313.973C650.121 314.269 652.064 314.42 653.933 314.42C665.433 314.42 676.559 308.374 687.532 296.275V445.315H679.022C673.647 445.315 669.241 449.721 669.241 455.096C669.241 460.471 673.647 464.878 679.022 464.878H715.61C720.985 464.878 725.391 460.471 725.391 455.096C725.391 449.721 720.985 445.315 715.61 445.315H707.099L707.089 340.258C707.162 340.482 707.24 340.633 707.313 340.779C723.365 386.399 741.584 410.367 763.016 413.951C764.88 414.248 766.823 414.399 768.693 414.399C780.193 414.399 791.318 408.352 802.291 396.253V550.213H793.781C788.406 550.213 784 554.62 784 559.994C784 565.369 788.406 569.776 793.781 569.776H830.369C835.744 569.776 840.15 565.369 840.15 559.994C840.145 554.625 835.588 550.218 830.213 550.218L830.213 550.213Z" fill="black"/>
<path d="M217.8 445.307C212.425 445.307 208.019 449.713 208.019 455.088C208.019 460.463 212.425 464.869 217.8 464.869H254.388C259.763 464.869 264.169 460.463 264.169 455.088C264.169 449.713 259.763 445.307 254.388 445.307H245.878L245.872 296.267C256.846 308.439 267.971 314.412 279.471 314.412C281.336 314.412 283.205 314.261 285.148 313.964C305.607 310.532 323.08 288.579 338.612 246.912V323.297H330.024C324.649 323.297 320.242 327.704 320.242 333.079C320.242 338.454 324.649 342.86 330.024 342.86H366.612C371.986 342.86 376.393 338.454 376.393 333.079C376.393 327.704 371.986 323.297 366.612 323.297H358.101L358.096 179.337H361.752C367.127 179.337 371.533 174.931 371.533 169.556C371.533 164.181 367.127 159.775 361.752 159.775H334.946C329.571 159.775 325.164 164.181 325.164 169.556C325.164 174.931 329.571 179.337 334.946 179.337H337.784C328.076 226.603 305.305 290.816 281.935 294.697C271.779 296.416 259.013 285.067 245.872 262.817V262.297H249.528C254.903 262.297 259.31 257.89 259.31 252.515C259.31 247.14 254.903 242.734 249.528 242.734H222.722C217.347 242.734 212.94 247.14 212.94 252.515C212.94 257.89 217.347 262.297 222.722 262.297H226.378V269.687C225.258 270.958 224.435 272.526 224.138 274.239C215.102 321.802 191.508 390.646 167.316 394.75C157.159 396.469 144.394 385.12 131.253 362.87V355.032H134.909C140.284 355.032 144.691 350.625 144.691 345.25C144.691 339.875 140.284 335.469 134.909 335.469H107.967C102.592 335.469 98.1854 339.875 98.1854 345.25C98.1854 350.625 102.592 355.032 107.967 355.032H111.623V550.205H103.112C97.7376 550.205 93.3313 554.611 93.3313 559.986C93.3313 565.361 97.7376 569.767 103.112 569.767H139.701C145.075 569.767 149.482 565.361 149.482 559.986C149.482 554.611 145.075 550.205 139.701 550.205H131.185V396.312C142.159 408.483 153.284 414.457 164.784 414.457C166.648 414.457 168.518 414.306 170.461 414.009C191.887 410.426 210.106 386.457 226.163 340.837C226.236 340.613 226.314 340.462 226.387 340.316V445.373L217.799 445.368L217.8 445.307Z" fill="black"/>
<path d="M512.88 297.84C511.016 295.449 508.177 294.033 505.114 294.033H427.088C424.025 294.033 421.187 295.449 419.322 297.84L209.962 571.12C207.723 574.031 207.348 578.063 208.993 581.349C210.634 584.709 213.999 586.802 217.728 586.802H715.528C719.262 586.802 722.622 584.714 724.262 581.349C725.903 577.99 725.533 574.031 723.215 571.12L512.88 297.84ZM237.507 567.32L431.867 313.533H500.336L695.669 567.32H237.507Z" fill="black"/>
</svg>
